# xmcd CD database file
#
# Track frame offsets:
#	195
#	19540
#	41839
#	63062
#	94620
#	112598
#	128196
#	146141
#	167984
#	180131
#
# Disc length: 2795 seconds
#
# Revision: 0
# Processed by: cddbd v1.5.2PL0 Copyright (c) Steve Scherf et al.
# Submitted via: CDex 1.51
#
DISCID=760ae90a
DTITLE=Little Mike and The Tornadoes - Hot Shot
DYEAR=2010
DGENRE=Blues
TTITLE0=Driving All Day
TTITLE1=I Found Out
TTITLE2=Trying To Make It
TTITLE3=Mother-In-Law Blues
TTITLE4=Start To Leave My Baby
TTITLE5=I Won't Be Your Fool
TTITLE6=Hot Shot
TTITLE7=All Night Driver
TTITLE8=True Love
TTITLE9=Goin' Back To Florida
EXTD=YEAR: 2010
EXTT0=
EXTT1=
EXTT2=
EXTT3=
EXTT4=
EXTT5=
EXTT6=
EXTT7=
EXTT8=
EXTT9=
PLAYORDER=
